<svg
   xmlns="http://www.w3.org/2000/svg" viewBox="0 0 24 24">
    <path
       style="fill:#000000;stroke:none;"
       d="m 13.5,11 3.5,-0.5 v -9.5 h 1 v 9 l 2,-2 v -7 h 1 v 6 c 0,0 0.684753,-1.075 1.2,-1 0.394808,0.0575 0.83612,0.57466 0.8,1 -0.03396,0.39995 -0.9,0.8 -0.9,0.8 l -3.8,4.6 -4.3,1 0.2,2 c 0,0 1.262516,2.51298 2.8,2.4 v -4.8 l 1,-0.2 v 4.5 l 3,-1.3 1,1.79466 c 0,0 -4.261884,2.79834 -6.2,2.80534 -1.819635,0.006 -4.8,-2.6 -4.8,-2.6 l -3.3,1 -0.1,4 H 5.8 c 0,0 -1.0539919,-3.87437 -0.2,-5.4 0.7432645,-1.32782 4,-2.2 4,-2.2 l 0.4,-2 -4.5,-1.2 -2.1,3.8 c -0.463957,0.3516 -1.1728187,0.64692 -1.7,0.4 -0.4724906,-0.2213 -0.783575,-0.88499 -0.7,-1.4 0.075511,-0.46532 1,-1 1,-1 v -13 h 1 v 12 l 1.3,-2.8 1.7,0.2 v -9.4 h 1 v 9.5 l 4,0.5 v -2 c -1.3529391,-0.19721 -3,-1.79086 -3,-4 0,-2.20914 1.790861,-4 4,-4 2.209139,0 4,1.79086 4,4 0,2.20914 -1.411397,4.02232 -2.459821,4"
       />
</svg>
