<svg
   xmlns="http://www.w3.org/2000/svg"
   viewBox="0 0 24 24">
   <path d="m 20,18 c 0,-1.46 -1.06,-2.67 -2.4,-2.67 -1.33,0 -2.4,1.25 -2.4,2.67 0,1.46 1.06,2.67 2.4,2.67 1.33,0 2.4,-1.17 2.4,-2.67 h 1.9 c 0,2.9 -3,5.7 -6,4.4 -2.5,-1.67 -2.7,-2.8 -3,-6.2 -2.7,-4 -10,-10 -5.8,-15.4 0,0 6.6,11 8.1,13.4 3.9,-2.1 6.67,0.75 6.7,3.87"/>
   <path d="m 3.933805,18 c 0,-1.46 1.06,-2.67 2.4,-2.67 1.33,0 2.4,1.25 2.4,2.67 0,1.46 -1.06,2.67 -2.4,2.67 -1.33,0 -2.4,-1.17 -2.4,-2.67 H 2.037918 c 0,2.9 3,5.7 6,4.4 2.5,-1.67 2.7,-2.8 3,-6.2 2.7,-4 10,-10 5.8,-15.4 0,0 -6.6,11 -8.1,13.4 C 4.8,12 2.04,15 2,18"/>
</svg>
