<?xml version="1.0" encoding="UTF-8" standalone="no"?>
<!-- Created with Inkscape (http://www.inkscape.org/) -->

<svg
   xmlns="http://www.w3.org/2000/svg"
   viewBox="0 0 80 80">
  <g
     transform="translate(0,-275.83332)">
    <circle
       cx="14.015866"
       cy="289.4158"
       r="1" />
    <circle
       cx="34.845184"
       cy="291.18863"
       r="1.5" />
    <circle
       cx="31.756672"
       cy="301.15881"
       r="1" />
    <circle
       cx="59.657055"
       cy="294.85043"
       r="1.5" />
    <circle
       cx="15.552509"
       cy="305.27274"
       r="2" />
    <circle
       cx="46.751122"
       cy="298.69656"
       r="1" />
    <circle
       cx="35.318699"
       cy="322.5665"
       r="1.5" />
    <circle
       cx="59.183552"
       cy="315.49542"
       r="1.5" />
    <circle
       cx="49.897697"
       cy="328.66406"
       r="2" />
    <circle
       cx="48.013817"
       cy="310.97623"
       r="1" />
    <circle
       cx="62.850433"
       cy="329.53778"
       r="1" />
    <circle
       cx="33.177197"
       cy="311.10251"
       r="1" />
    <circle
       cx="56.757946"
       cy="337.42963"
       r="1" />
    <circle
       cx="20.266186"
       cy="325.05524"
       r="1" />
    <circle
       cx="63.134541"
       cy="306.49368"
       r="1" />
    <circle
       cx="32.703693"
       cy="331.7475"
       r="1" />
    <circle
       cx="20.155701"
       cy="335.83545"
       r="1.5" />
    <circle
       cx="31.367155"
       cy="345.39526"
       r="1" />
    <circle
       cx="43.299587"
       cy="344.00629"
       r="1" />
    <circle
       cx="30.699446"
       cy="315.37451"
       r="1.5" />
    <circle
       cx="40.732758"
       cy="312.38071"
       r="2" />
    <circle
       cx="51.128544"
       cy="333.52063"
       r="1" />
    <circle
       cx="15.646934"
       cy="317.86325"
       r="1" />
    <circle
       cx="28.08444"
       cy="324.55551"
       r="1" />
    <circle
       cx="15.536448"
       cy="328.64346"
       r="1.5" />
    <circle
       cx="26.747904"
       cy="338.20328"
       r="1" />
    <circle
       cx="38.680332"
       cy="336.8143"
       r="1" />
    <circle
       cx="46.609352"
       cy="324.46588"
       r="1.5" />
    <circle
       cx="39.975143"
       cy="329.55328"
       r="2" />
    <circle
       cx="65.270676"
       cy="340.33914"
       r="1" />
    <circle
       cx="31.556835"
       cy="326.95462"
       r="1" />
    <circle
       cx="43.994347"
       cy="333.64688"
       r="1" />
    <circle
       cx="31.44635"
       cy="337.73483"
       r="1.5" />
    <circle
       cx="42.657806"
       cy="347.29465"
       r="1" />
    <circle
       cx="52.822472"
       cy="343.88538"
       r="1" />
    <circle
       cx="14.037283"
       cy="339.54407"
       r="2" />
    <circle
       cx="56.284443"
       cy="321.98251"
       r="1" />
    <circle
       cx="50.191952"
       cy="329.87436"
       r="1" />
    <circle
       cx="26.137707"
       cy="324.19223"
       r="1" />
    <circle
       cx="13.589709"
       cy="328.28018"
       r="1.5" />
    <circle
       cx="24.801167"
       cy="337.84"
       r="1" />
    <circle
       cx="36.733601"
       cy="336.45102"
       r="1" />
    <circle
       cx="44.56255"
       cy="325.96536"
       r="1" />
    <circle
       cx="8.970458"
       cy="321.0882"
       r="1.5" />
    <circle
       cx="20.181911"
       cy="330.64801"
       r="1" />
    <circle
       cx="32.114346"
       cy="329.25903"
       r="1" />
    <circle
       cx="48.81398"
       cy="317.9574"
       r="2" />
    <circle
       cx="58.704678"
       cy="332.78387"
       r="1" />
    <circle
       cx="24.990849"
       cy="319.39935"
       r="1" />
    <circle
       cx="37.428356"
       cy="326.09161"
       r="1" />
    <circle
       cx="24.88036"
       cy="330.17957"
       r="1.5" />
    <circle
       cx="36.091816"
       cy="339.73938"
       r="1" />
    <circle
       cx="46.256481"
       cy="336.33011"
       r="1" />
  </g>
</svg>
