<svg
   xmlns="http://www.w3.org/2000/svg" viewBox="0 0 24 24">
  
  <path
       style="fill:#000000;stroke:none;"
       d="m 12,1 c 6.075132,0 11,4.92487 11,11 0,6.07513 -4.924868,11 -11,11 -6.0751322,0 -11,-4.92487 -11,-11 0,-6.07513 4.9248677,-11 11,-11 l -4,3 c -1.6568542,0 -3,1.34315 -3,3 0,1.65685 1.3431458,3 3,3 1.6568542,0 3,-1.34315 3,-3 l 3.8,0.4 c -0.620737,0.93937 0.4,2 0.4,2 0,0 -1.38133,-0.44152 -1.9,0.4 -0.481742,0.7816 0.1,1.5 0.1,1.5 0,0 -1.397013,0.6955 -1.8537,1.23159 -0.744793,0.87428 -1.0463,2.46841 -1.0463,2.46841 l -3.5,3 4.4,-2 c 0,0 2.084689,-0.57696 2.6,-1.3 0.657811,-0.92298 0.3,-2.7 0.3,-2.7 0,0 1.004631,0.13289 1.5,-0.8 0.496363,-0.93476 -0.6,-1.8 -0.6,-1.8 0,0 1.637558,0.16968 2.2,-1.1 l 3.1,1.4 c -0.549648,1.31305 0.795975,2.92854 0.1,4.1 -0.566704,0.95387 -2.428342,0.64909 -3,1.6 -0.534089,0.88842 0.453713,2.16797 0,3.1 -0.75877,1.55869 -4.1,3.2 -4.1,3.2 0,0 4.491549,-0.79118 5.8,-2.4 0.690369,-0.84885 0.07532,-2.3017 0.7,-3.2 0.505277,-0.7266 1.592376,-0.61445 2,-1.4 0.924583,-1.78181 0,-6.3 0,-6.3 0,0 -1.376541,0.21035 -1.5,1.3 l -3.1,-1.4 c 0,0 0.113474,-1.08701 -0.6,-1.5 -0.750533,-0.43445 -1.380737,-0.17991 -2,0.6 l -3.8,-0.4 c 0,-1.65685 -1.343146,-3 -3,-3"
       />
</svg>
