<svg xmlns="http://www.w3.org/2000/svg" viewBox="0 0 24 24">
    <path
        style="fill:#000000;stroke:none;"
        d="m 1,3.5 v 2.5 h 12.5 v -2.5 z"/>
    <path
        style="fill:#000000;stroke:none;"
        d="m 14,2 v 6 h 2.5 v -6 z"/>
    <path
        style="fill:#000000;stroke:none;"
        d="m 17,3.5 v 2.5 h 6 v -2.5 z"/>
    <path
        style="fill:#000000;stroke:none;"
        d="m 1,13 c 0,-1.65685 1.343146,-3 3,-3 1.656854,0 3,1.34315 3,3 0,1.65685 -1.343146,3 -3,3 -1.656854,0 -3,-1.34315 -3,-3 h 1 c 0,1.10457 0.895431,2 2,2 1.104569,0 2,-0.89543 2,-2 0,-1.10457 -0.895431,-2 -2,-2 -1.104569,0 -2,0.89543 -2,2 z"
        />
    <path
        style="fill:#000000;stroke:none;"
        d="m 1,20 c 0,-1.65685 1.343146,-3 3,-3 1.656854,0 3,1.34315 3,3 0,1.65685 -1.343146,3 -3,3 -1.656854,0 -3,-1.34315 -3,-3 h 1 c 0,1.10457 0.895431,2 2,2 1.104569,0 2,-0.89543 2,-2 0,-1.10457 -0.895431,-2 -2,-2 -1.104569,0 -2,0.89543 -2,2 z"
        />
    <path
        style="fill:#000000;stroke:none;"
        d="m 8,12 v 2 h 14 v -2 z"/>
    <path
        style="fill:#000000;stroke:none;"
        d="m 8,19 v 2 h 14 v -2 z"/>
</svg>
