<svg
   xmlns="http://www.w3.org/2000/svg"
   viewBox="0 0 80 80">
  <path
     style="fill:none;stroke:#000000;stroke-width:1px;stroke-linecap:butt;stroke-linejoin:miter;stroke-opacity:1"
     d="M 19.239426,65.5 H 66.23943"/>
  <path
     style="fill:none;stroke:#000000;stroke-width:1px;stroke-linecap:butt;stroke-linejoin:miter;stroke-opacity:1"
     d="M 8.2394261,71.5 H 60.23943 l 12,-12 H 30.239426 Z"/>
  <circle
     r="2"
     cy="56.897041"
     cx="27.755899" />
  <circle
     r="1.5"
     cy="46.733177"
     cx="35.318699" />
  <circle
     r="1.5"
     cy="51.865494"
     cx="55.79372" />
  <circle
     r="2"
     cy="55.542606"
     cx="51.931595" />
  <circle
     r="1"
     cy="35.142906"
     cx="48.013817" />
  <circle
     r="1"
     cy="53.70446"
     cx="62.850433" />
  <circle
     r="1"
     cy="43.743763"
     cx="42.329739" />
  <circle
     r="1"
     cy="61.596306"
     cx="56.757946" />
  <circle
     r="1"
     cy="49.221916"
     cx="20.266186" />
  <circle
     r="1"
     cy="39.812904"
     cx="61.77861" />
  <circle
     r="1"
     cy="55.914177"
     cx="32.703693" />
  <circle
     r="1.5"
     cy="60.002129"
     cx="20.155701" />
  <circle
     r="1"
     cy="69.561943"
     cx="31.367155" />
  <circle
     r="1"
     cy="68.172966"
     cx="43.299587" />
  <circle
     r="1.5"
     cy="39.541191"
     cx="30.699446" />
  <circle
     r="2"
     cy="66.716881"
     cx="27.851404" />
  <circle
     r="1"
     cy="45.144936"
     cx="52.145493" />
  <circle
     r="1"
     cy="42.02993"
     cx="15.646934" />
  <circle
     r="1"
     cy="48.722191"
     cx="28.08444" />
  <circle
     r="1.5"
     cy="52.810143"
     cx="15.536448" />
  <circle
     r="1"
     cy="62.369957"
     cx="26.747904" />
  <circle
     r="1"
     cy="60.98098"
     cx="38.680332" />
  <circle
     r="1.5"
     cy="48.632561"
     cx="46.609352" />
  <circle
     r="2"
     cy="53.719963"
     cx="39.975143" />
  <circle
     r="1"
     cy="64.505821"
     cx="65.270676" />
  <circle
     r="1"
     cy="51.1213"
     cx="31.556835" />
  <circle
     r="1"
     cy="57.81356"
     cx="43.994347" />
  <circle
     r="1.5"
     cy="61.901512"
     cx="31.44635" />
  <circle
     r="1"
     cy="35.529121"
     cx="55.539162" />
  <circle
     r="1"
     cy="38.899513"
     cx="38.924168" />
  <circle
     r="2"
     cy="63.710747"
     cx="14.037283" />
  <circle
     r="1"
     cy="46.149193"
     cx="56.284443" />
  <circle
     cy="57.091885"
     cx="48.158054"
     r="1" />
  <circle
     r="1"
     cy="48.35891"
     cx="26.137707" />
  <circle
     r="1.5"
     cy="52.446861"
     cx="13.589709" />
  <circle
     r="1"
     cy="62.006676"
     cx="24.801167" />
  <circle
     r="1"
     cy="60.617699"
     cx="36.733601" />
  <circle
     r="1"
     cy="50.132042"
     cx="44.56255" />
  <circle
     r="1.5"
     cy="57.119282"
     cx="65.580627" />
  <circle
     r="1"
     cy="54.81469"
     cx="20.181911" />
  <circle
     r="1"
     cy="53.425713"
     cx="32.114346" />
  <circle
     r="2"
     cy="66.869843"
     cx="53.22076" />
  <circle
     r="1"
     cy="56.950554"
     cx="58.704678" />
  <circle
     r="1"
     cy="43.566032"
     cx="24.990849" />
  <circle
     r="1"
     cy="50.258293"
     cx="37.428356" />
  <circle
     r="1.5"
     cy="54.346245"
     cx="24.88036" />
  <circle
     r="1"
     cy="63.906059"
     cx="36.091816" />
  <circle
     r="1"
     cy="60.496788"
     cx="46.256481" />
  <path
     style="fill:none;stroke:#000000;stroke-width:1px;"
     d="M 8,24 H 60 L 72,12 H 30 Z"/>
  <path
     style="fill:none;stroke:#000000;stroke-width:1px;"
     d="M 34,24 51,12"/>
  <path
     style="fill:none;stroke:#000000;stroke-width:1px;"
     d="M 19,18 H 66"/>
  <path
     style="fill:none;stroke:#000000;stroke-width:1px;"
     d="M 34.239426,71.5 51.23943,59.5"/>
</svg>
