<svg xmlns="http://www.w3.org/2000/svg" viewBox="0 0 24 24">
   <path d="M 13,17 C 13,20.3 10.3,23 7,23 3.7,23 1,20.3 1,17 1,13.6 3.66,10.9 7,10.9 v 2 c -2.2,0 -4,1.8 -4,4 0,2.2 1.8,4 4,4 2.2,0 4,-1.8 4,-4 z"/>
   <path d="m 13.6,10.5 c 0,0 -3,-0.9 -4,0 C 8,12 7.5,12.4 5.6,14.5 c -0.9,1 -0.94,3.1 0,4 0.94,0.95 3,0.87 4,0 1.9,-1.7 4,-4 4,-4 H 11.7 c 0,0 -1.2,1.5 -2.5,2.5 -0.52,0.38 -1.5,0.46 -2,0 -0.45,-0.46 -0.45,-1.5 0,-2 1.5,-1.7 1.7,-1.9 3,-3 0.52,-0.42 2,0 2,0 z"/>
   <path d="M 11,7 C 11,3.7 13.7,1 17,1 20.3,1 23,3.7 23,7.1 23,10.4 20.3,13 17,13 v -2 c 2.2,0 4,-1.8 4,-4 0,-2.2 -1.8,-4 -4,-4 -2.2,0 -4,1.8 -4,4 z"/>
  <path d="m 10,14 c 0,0 3,0.9 4,0 1.6,-1.5 2.1,-1.9 4,-4 0.9,-1 0.94,-3.1 0,-4 -0.94,-0.95 -3,-0.87 -4,0 -1.9,1.7 -4,4 -4,4 h 2.1 c 0,0 1.2,-1.5 2.5,-2.5 0.52,-0.38 1.5,-0.46 2,0 0.45,0.46 0.45,1.5 0,2 -1.5,1.7 -1.7,1.9 -3,3 -0.52,0.42 -2,0 -2,0 z"/>
</svg>
