<svg xmlns="http://www.w3.org/2000/svg" viewBox="0 0 24 24">
  <path
     style="fill:#000000;stroke:none"
     d="M 13.5,6 H 16 L 12,1 8,6 h 2.5 v 8 h 3 m -3,3.5 V 23 h 3 v -5.5"/>
  <path
     style="fill:#000000;stroke:none"
     d="m 14.5,10 c 1.249792,0.08143 2.5,1.2 2.5,1.2 l 3,-0.8 c 0,0 -3.290866,-2.2440678 -5.5,-2.6 m -5,0 c -3.9011064,0.1200414 -5.8726591,1.7128086 -6,4.2 -0.1273409,2.487191 4.5761074,4.8 8.5,4.8 3.923893,0 5.8125,-0.925 5.8125,-0.925 l 1.3625,1.5 2.1375,-5.6875 -6.2875,0.125 1.475,2.125 c 0,0 -1.633363,0.7625 -4.5,0.7625 C 9.1333628,14.7 6,13.522156 6,11.99985 6,10.477544 9.5,10 9.5,10"
     />
</svg>
