<svg
   xmlns="http://www.w3.org/2000/svg"
   viewBox="0 0 80 80">
  <g
     transform="translate(-2.116666,-273.71666)">
    <circle
       style="fill:none;stroke:#000000;stroke-width:1;"
       cx="42.116665"
       cy="313.71664"
       r="31.498741" />
    <path
       style="fill:none;stroke:#000000;stroke-width:1;"
       d="m 42.116669,345.21664 a 23.499964,31.499962 0 0 1 -20.351566,-15.74998 23.499964,31.499962 0 0 1 0,-31.49997 23.499964,31.499962 0 0 1 20.351566,-15.74998"
       />
    <path
       style="fill:none;stroke:#000000;stroke-width:1;"
       d="M 42.116665,282.27369 A 19.442986,31.442984 0 0 1 61.55965,313.71667 19.442986,31.442984 0 0 1 42.116665,345.15966"
       />
    <path
       style="fill:none;stroke:#000000;stroke-width:1;"
       d="m 42.116665,282.20403 a 5.5126104,31.512611 0 0 1 5.51261,31.51261 5.5126104,31.512611 0 0 1 -5.51261,31.51262"
       />
    <path
       style="fill:none;stroke:#000000;stroke-width:1;"
       transform="rotate(90)"
       d="m 313.7063,-73.096717 a 11.457972,31.45797 0 0 1 9.46832,30.980052 11.457972,31.45797 0 0 1 -9.46832,30.980053"
       />
    <path
       style="fill:none;stroke:#000000;stroke-width:1;"
       transform="rotate(90)"
       d="m 298.71667,-69.617437 a 7.5007725,27.500772 0 0 1 7.50078,27.500772 7.5007725,27.500772 0 0 1 -7.50077,27.500773"
       />
    <path
       style="fill:none;stroke:#000000;stroke-width:1;"
       transform="rotate(90)"
       d="m 329.63264,-68.850457 a 11.449508,28.449507 0 0 1 7.53354,26.733792 11.449508,28.449507 0 0 1 -7.53354,26.733792"
       />
    <path
       style="fill:none;stroke:#000000;stroke-width:1;"
       transform="rotate(90)"
       d="m 286.71667,-58.714228 a 3.5975628,16.597563 0 0 1 3.59757,16.597563 3.5975628,16.597563 0 0 1 -3.59757,16.597563"
       />
    <path
       style="fill:none;stroke:#000000;stroke-width:1;"
       d="m -44.116665,282.14721 a 11.56946,31.56946 0 0 1 11.56946,31.56946 11.56946,31.56946 0 0 1 -11.56946,31.56946"
       transform="scale(-1,1)" />
  </g>
</svg>
