<svg xmlns="http://www.w3.org/2000/svg" viewBox="0 0 80 80">
    <path
        style="fill:none;stroke:#000000;stroke-width:1px;"
        d="m 8,12 v 32 h 60 l 4,-4 v -32 H 12 l -3,4 h 59 v 31"/>
    <path
        style="fill:none;stroke:#000000;stroke-width:1px;"
        d="m 69,11 2,-2"/>
    <path
        style="fill:none;stroke:#000000;stroke-width:1px;"
        d="m 32,46 v 26 h 12 l 4,-4 v -23"/>
    <path
        style="fill:none;stroke:#000000;stroke-width:1px;"
        d="m 44,72 v -25"/>
    <path
        style="fill:none;stroke:#000000;stroke-width:1px;"
        d="m 63,27 c 0,0 -3.582938,-8.30044 -7,-8 -2.971859,0.26129 -2.088923,7.34742 -5,8 -8.654164,-0.9072 -10.55996,-7.26166 -15.928571,-6.17857 -2.822845,2.35161 -3.815927,7.19976 -6.375,6.76785 -2.153348,-0.36344 -5.449827,-4.17536 -7.392858,-3.17856 C 19.185127,25.5 17,31 17,31"
        />
    <path
        style="fill:#000000;stroke:none;"
        d="m 17,32 c 3.20233,-3.43699 8.344241,-3.86062 13,-3 4.088309,1.00627 6.277603,-1.32535 10,-4 4.568989,2.06644 7.209392,5.62801 12,3 4.317734,-4.53831 6.596672,-3.74791 11,0 2.063863,3.16678 2,12 2,12 H 12 c 0,0 3.071473,-6.67663 5,-8 z"
        />
</svg>
