<svg
   xmlns="http://www.w3.org/2000/svg"
   viewBox="0 0 80 80">
  <g
     transform="translate(0,-275.83332)">
    <path
       style="fill:none;stroke:#000000;stroke-width:1px;"
       d="m 54.800776,309.87138 4.798224,3.53553 m 0,0 c -7.758079,16.01628 -21.865481,15.37017 -35.607877,7.07107 -11.698929,-6.60114 -14.9012162,-21.24187 -7.828683,-30.05204 6.852378,-4.68008 17.425132,3.53554 17.425132,3.53554 m -1.515229,4.79823 c 0,0 -5.768952,-6.08342 -7.576144,-3.53554 -2.215224,3.12315 2.218209,10.12624 11.869293,13.38452 9.651084,3.25828 12.462282,4.17806 18.435284,1.26269"
       />
    <path
       style="fill:none;stroke:#000000;stroke-width:1px;"
       d="m 38.890873,327.29651 c 0,0 1.41634,5.66002 9.59645,5.55584 8.180109,-0.10417 16.782631,-11.26884 12.12183,-18.68783 -4.660802,-7.41898 -13.103105,-8.73938 -18.687823,-10.10151 l 0.757615,-5.30331 c 20.344369,-0.44029 28.832982,8.81021 29.7995,22.72843 -1.578527,17.94895 -22.501105,24.54116 -35.860415,20.96067 -11.228961,-5.52266 -7.828682,-16.92006 -7.828682,-16.92006"
       />
    <path
       style="fill:none;stroke:#000000;stroke-width:1px;"
       d="m 32.072344,305.32569 c 2.564439,-12.66311 6.358074,-20.79066 14.142135,-20.70813 9.804366,1.85029 16.162441,17.1726 16.162441,17.1726 l -7.071068,-1.51523 c 0,0 -2.365185,-5.02189 -9.091373,-4.79822 -6.726188,0.22367 -5.050762,13.63706 -5.050762,13.63706"
       />
  </g>
</svg>
